<svg id="visual" viewBox="0 0 1260 840" width="1260" height="840" xmlns="http://www.w3.org/2000/svg" xmlns:xlink="http://www.w3.org/1999/xlink" version="1.1"><path d="M0 253L19.2 236.2C38.3 219.3 76.7 185.7 114.8 196.8C153 208 191 264 229.2 273.8C267.3 283.7 305.7 247.3 343.8 215.2C382 183 420 155 458.2 156.3C496.3 157.7 534.7 188.3 572.8 188.3C611 188.3 649 157.7 687.2 163.3C725.3 169 763.7 211 801.8 237.7C840 264.3 878 275.7 916.2 271.5C954.3 267.3 992.7 247.7 1030.8 247.7C1069 247.7 1107 267.3 1145.2 271.5C1183.3 275.7 1221.7 264.3 1240.8 258.7L1260 253L1260 0L1240.8 0C1221.7 0 1183.3 0 1145.2 0C1107 0 1069 0 1030.8 0C992.7 0 954.3 0 916.2 0C878 0 840 0 801.8 0C763.7 0 725.3 0 687.2 0C649 0 611 0 572.8 0C534.7 0 496.3 0 458.2 0C420 0 382 0 343.8 0C305.7 0 267.3 0 229.2 0C191 0 153 0 114.8 0C76.7 0 38.3 0 19.2 0L0 0Z" fill="#00ffff"></path><path d="M0 287L19.2 275.7C38.3 264.3 76.7 241.7 114.8 251.3C153 261 191 303 229.2 317C267.3 331 305.7 317 343.8 293.3C382 269.7 420 236.3 458.2 230.8C496.3 225.3 534.7 247.7 572.8 240.7C611 233.7 649 197.3 687.2 200.2C725.3 203 763.7 245 801.8 277.2C840 309.3 878 331.7 916.2 334.3C954.3 337 992.7 320 1030.8 317.2C1069 314.3 1107 325.7 1145.2 324.3C1183.3 323 1221.7 309 1240.8 302L1260 295L1260 251L1240.8 256.7C1221.7 262.3 1183.3 273.7 1145.2 269.5C1107 265.3 1069 245.7 1030.8 245.7C992.7 245.7 954.3 265.3 916.2 269.5C878 273.7 840 262.3 801.8 235.7C763.7 209 725.3 167 687.2 161.3C649 155.7 611 186.3 572.8 186.3C534.7 186.3 496.3 155.7 458.2 154.3C420 153 382 181 343.8 213.2C305.7 245.3 267.3 281.7 229.2 271.8C191 262 153 206 114.8 194.8C76.7 183.7 38.3 217.3 19.2 234.2L0 251Z" fill="#60ffff"></path><path d="M0 354L19.2 342.8C38.3 331.7 76.7 309.3 114.8 320.5C153 331.7 191 376.3 229.2 386C267.3 395.7 305.7 370.3 343.8 348C382 325.7 420 306.3 458.2 299.3C496.3 292.3 534.7 297.7 572.8 292C611 286.3 649 269.7 687.2 274C725.3 278.3 763.7 303.7 801.8 333C840 362.3 878 395.7 916.2 398.3C954.3 401 992.7 373 1030.8 371.7C1069 370.3 1107 395.7 1145.2 395.7C1183.3 395.7 1221.7 370.3 1240.8 357.7L1260 345L1260 293L1240.8 300C1221.7 307 1183.3 321 1145.2 322.3C1107 323.7 1069 312.3 1030.8 315.2C992.7 318 954.3 335 916.2 332.3C878 329.7 840 307.3 801.8 275.2C763.7 243 725.3 201 687.2 198.2C649 195.3 611 231.7 572.8 238.7C534.7 245.7 496.3 223.3 458.2 228.8C420 234.3 382 267.7 343.8 291.3C305.7 315 267.3 329 229.2 315C191 301 153 259 114.8 249.3C76.7 239.7 38.3 262.3 19.2 273.7L0 285Z" fill="#87ffff"></path><path d="M0 438L19.2 436.5C38.3 435 76.7 432 114.8 439C153 446 191 463 229.2 470C267.3 477 305.7 474 343.8 458.5C382 443 420 415 458.2 408C496.3 401 534.7 415 572.8 408C611 401 649 373 687.2 381.5C725.3 390 763.7 435 801.8 471.5C840 508 878 536 916.2 541.5C954.3 547 992.7 530 1030.8 528.5C1069 527 1107 541 1145.2 532.7C1183.3 524.3 1221.7 493.7 1240.8 478.3L1260 463L1260 343L1240.8 355.7C1221.7 368.3 1183.3 393.7 1145.2 393.7C1107 393.7 1069 368.3 1030.8 369.7C992.7 371 954.3 399 916.2 396.3C878 393.7 840 360.3 801.8 331C763.7 301.7 725.3 276.3 687.2 272C649 267.7 611 284.3 572.8 290C534.7 295.7 496.3 290.3 458.2 297.3C420 304.3 382 323.7 343.8 346C305.7 368.3 267.3 393.7 229.2 384C191 374.3 153 329.7 114.8 318.5C76.7 307.3 38.3 329.7 19.2 340.8L0 352Z" fill="#a5ffff"></path><path d="M0 555L19.2 553.7C38.3 552.3 76.7 549.7 114.8 549.7C153 549.7 191 552.3 229.2 549.5C267.3 546.7 305.7 538.3 343.8 520.2C382 502 420 474 458.2 465.7C496.3 457.3 534.7 468.7 572.8 461.7C611 454.7 649 429.3 687.2 453.2C725.3 477 763.7 550 801.8 592C840 634 878 645 916.2 643.5C954.3 642 992.7 628 1030.8 622.5C1069 617 1107 620 1145.2 614.5C1183.3 609 1221.7 595 1240.8 588L1260 581L1260 461L1240.8 476.3C1221.7 491.7 1183.3 522.3 1145.2 530.7C1107 539 1069 525 1030.8 526.5C992.7 528 954.3 545 916.2 539.5C878 534 840 506 801.8 469.5C763.7 433 725.3 388 687.2 379.5C649 371 611 399 572.8 406C534.7 413 496.3 399 458.2 406C420 413 382 441 343.8 456.5C305.7 472 267.3 475 229.2 468C191 461 153 444 114.8 437C76.7 430 38.3 433 19.2 434.5L0 436Z" fill="#beffff"></path><path d="M0 639L19.2 634.8C38.3 630.7 76.7 622.3 114.8 618.2C153 614 191 614 229.2 612.7C267.3 611.3 305.7 608.7 343.8 589.2C382 569.7 420 533.3 458.2 529.2C496.3 525 534.7 553 572.8 551.5C611 550 649 519 687.2 537.2C725.3 555.3 763.7 622.7 801.8 661.8C840 701 878 712 916.2 707.8C954.3 703.7 992.7 684.3 1030.8 677.3C1069 670.3 1107 675.7 1145.2 677C1183.3 678.3 1221.7 675.7 1240.8 674.3L1260 673L1260 579L1240.8 586C1221.7 593 1183.3 607 1145.2 612.5C1107 618 1069 615 1030.8 620.5C992.7 626 954.3 640 916.2 641.5C878 643 840 632 801.8 590C763.7 548 725.3 475 687.2 451.2C649 427.3 611 452.7 572.8 459.7C534.7 466.7 496.3 455.3 458.2 463.7C420 472 382 500 343.8 518.2C305.7 536.3 267.3 544.7 229.2 547.5C191 550.3 153 547.7 114.8 547.7C76.7 547.7 38.3 550.3 19.2 551.7L0 553Z" fill="#d5ffff"></path><path d="M0 816L19.2 810.3C38.3 804.7 76.7 793.3 114.8 784.8C153 776.3 191 770.7 229.2 776.3C267.3 782 305.7 799 343.8 806C382 813 420 810 458.2 808.5C496.3 807 534.7 807 572.8 802.8C611 798.7 649 790.3 687.2 791.8C725.3 793.3 763.7 804.7 801.8 810.3C840 816 878 816 916.2 814.5C954.3 813 992.7 810 1030.8 808.5C1069 807 1107 807 1145.2 802.8C1183.3 798.7 1221.7 790.3 1240.8 786.2L1260 782L1260 671L1240.8 672.3C1221.7 673.7 1183.3 676.3 1145.2 675C1107 673.7 1069 668.3 1030.8 675.3C992.7 682.3 954.3 701.7 916.2 705.8C878 710 840 699 801.8 659.8C763.7 620.7 725.3 553.3 687.2 535.2C649 517 611 548 572.8 549.5C534.7 551 496.3 523 458.2 527.2C420 531.3 382 567.7 343.8 587.2C305.7 606.7 267.3 609.3 229.2 610.7C191 612 153 612 114.8 616.2C76.7 620.3 38.3 628.7 19.2 632.8L0 637Z" fill="#ebffff"></path><path d="M0 841L19.2 841C38.3 841 76.7 841 114.8 841C153 841 191 841 229.2 841C267.3 841 305.7 841 343.8 841C382 841 420 841 458.2 841C496.3 841 534.7 841 572.8 841C611 841 649 841 687.2 841C725.3 841 763.7 841 801.8 841C840 841 878 841 916.2 841C954.3 841 992.7 841 1030.8 841C1069 841 1107 841 1145.2 841C1183.3 841 1221.7 841 1240.8 841L1260 841L1260 780L1240.8 784.2C1221.7 788.3 1183.3 796.7 1145.2 800.8C1107 805 1069 805 1030.8 806.5C992.7 808 954.3 811 916.2 812.5C878 814 840 814 801.8 808.3C763.7 802.7 725.3 791.3 687.2 789.8C649 788.3 611 796.7 572.8 800.8C534.7 805 496.3 805 458.2 806.5C420 808 382 811 343.8 804C305.7 797 267.3 780 229.2 774.3C191 768.7 153 774.3 114.8 782.8C76.7 791.3 38.3 802.7 19.2 808.3L0 814Z" fill="#ffffff"></path></svg>