<svg id="visual" viewBox="0 0 900 600" width="900" height="600" xmlns="http://www.w3.org/2000/svg" xmlns:xlink="http://www.w3.org/1999/xlink" version="1.1"><path d="M0 411L21.5 406C43 401 86 391 128.8 384.3C171.7 377.7 214.3 374.3 257.2 390.3C300 406.3 343 441.7 385.8 446.8C428.7 452 471.3 427 514.2 410.5C557 394 600 386 642.8 400.2C685.7 414.3 728.3 450.7 771.2 464.5C814 478.3 857 469.7 878.5 465.3L900 461L900 601L878.5 601C857 601 814 601 771.2 601C728.3 601 685.7 601 642.8 601C600 601 557 601 514.2 601C471.3 601 428.7 601 385.8 601C343 601 300 601 257.2 601C214.3 601 171.7 601 128.8 601C86 601 43 601 21.5 601L0 601Z" fill="#0066FF" stroke-linecap="round" stroke-linejoin="miter"></path></svg>